# AST/ASF file generated using VICON BodyLanguage
# -----------------------------------------------
:version 1.10
:name VICON
:units
  mass 1.0
  length 0.45
  angle deg
:documentation
   .ast/.asf automatically generated from VICON data using
   VICON BodyBuilder and BodyLanguage model FoxedUp or BRILLIANT.MOD
:root
   order TX TY TZ RX RY RZ
   axis XYZ
   position 0 0 0  
   orientation 0 0 0 
:bonedata
  begin
     id 1 
     name lhipjoint
     direction 0.677091 -0.635792 0.370561 
     length 2.74323 
     axis 0 0 0  XYZ
  end
  begin
     id 2 
     name lfemur
     direction 0.34202 -0.939693 0  
     length 7.44995  
     axis 0 0 20  XYZ
    dof rx ry rz
    limits (-160.0 20.0)
           (-70.0 70.0)
           (-60.0 70.0)
  end
  begin
     id 3 
     name ltibia
     direction 0.34202 -0.939693 0   
     length 7.34467   
     axis 0 0 20   XYZ
    dof rx
    limits (-10.0 170.0)
  end
  begin
     id 4 
     name lfoot
     direction 0.101953 -0.280114 0.954537   
     length 1.72105   
     axis -90 7.62852e-016 20   XYZ
    dof rx rz
    limits (-45.0 90.0)
           (-70.0 20.0)
  end
  begin
     id 5 
     name ltoes
     direction 1.53537e-011 -4.21915e-011 1   
     length 0.865872   
     axis -90 7.62852e-016 20   XYZ
    dof rx
    limits (-90.0 20.0)
  end
  begin
     id 6 
     name rhipjoint
     direction -0.695735 -0.620586 0.361699   
     length 2.81045  
     axis 0 0 0  XYZ 
  end
  begin
     id 7 
     name rfemur
     direction -0.34202 -0.939693 0   
     length 7.29387   
     axis 0 0 -20   XYZ
    dof rx ry rz
    limits (-160.0 20.0)
           (-70.0 70.0)
           (-70.0 60.0)
  end
  begin
     id 8 
     name rtibia
     direction -0.34202 -0.939693 0   
     length 7.44935   
     axis 0 0 -20   XYZ
    dof rx
    limits (-10.0 170.0)
 end
 begin
     id 9 
     name rfoot
     direction -0.104163 -0.286184 0.952496   
     length 1.77731  
     axis -90 -7.62852e-016 -20   XYZ
    dof rx rz
    limits (-45.0 90.0)
           (-20.0 70.0)
  end
  begin
     id 10 
     name rtoes
     direction -1.5355e-011 -4.21888e-011 1   
     length 0.892424   
     axis -90 -7.62852e-016 -20   XYZ
    dof rx
    limits (-90.0 20.0)
  end
  begin
     id 11 
     name lowerback
     direction 0.0100202 0.997226 -0.0737589   
     length 2.16892   
     axis 0 0 0   XYZ
    dof rx ry rz
    limits (-20.0 45.0)
           (-30.0 30.0)
           (-30.0 30.0)
  end
  begin
     id 12 
     name upperback
     direction 0.00432398 0.999988 -0.00215019   
     length 2.17326   
     axis 0 0 0   XYZ
    dof rx ry rz
    limits (-20.0 45.0)
           (-30.0 30.0)
           (-30.0 30.0)
  end
  begin
     id 13 
     name thorax
     direction -0.00195047 0.999485 0.0320434   
     length 2.18139   
     axis 0 0 0   XYZ
    dof rx ry rz
    limits (-20.0 45.0)
           (-30.0 30.0)
           (-30.0 30.0)
  end
  begin
     id 14 
     name lowerneck
     direction 0.00782762 0.986241 0.165128   
     length 1.88415   
     axis 0 0 0   XYZ
    dof rx ry rz
    limits (-20.0 45.0)
           (-30.0 30.0)
           (-30.0 30.0)
  end
  begin
     id 15 
     name upperneck
     direction 0.00988667 0.981098 -0.193258   
     length 1.9242   
     axis 0 0 0   XYZ
    dof rx ry rz
    limits (-20.0 45.0)
           (-30.0 30.0)
           (-30.0 30.0)
  end
  begin
     id 16
     name head
     direction 0.00252199 0.996513 -0.0833958  
     length 1.93887  
     axis 0 0 0   XYZ
    dof rx ry rz
    limits (-20.0 45.0)
           (-30.0 30.0)
           (-30.0 30.0)
  end
  begin
     id 17 
     name lclavicle
     direction 0.929492 0.368193 -0.0218667  
     length 3.5955  
     axis 0 0 0   XYZ
    dof ry rz
    limits (-20.0 10.0)
           (0.0 20.0)
  end
  begin
     id 18 
     name lhumerus
     direction 1 -4.48972e-011 1.41911e-027   
     length 5.2795   
     axis 180 -30 -90   XYZ
    dof rx ry rz
    limits (-60.0 90.0)
           (-90.0 90.0)
           (-90.0 90.0)
  end
  begin
     id 19
     name lradius
     direction 1 -4.48963e-011 7.05772e-027   
     length 3.53504   
     axis 180 -30 -90   XYZ
    dof rx
    limits (-10.0 170.0)
  end
  begin
     id 20
     name lwrist
     direction 1 -4.48957e-011 9.54866e-027   
     length 1.76752   
     axis -7.69462e-015 90 90   XYZ
    dof ry
    limits (-180.0 0.0)
 end
  begin
     id 21 
     name lhand
     direction 1 -4.48979e-011 1.90973e-026   
     length 0.667948   
     axis -1.21857e-014 90 90   XYZ
    dof rx rz
    limits (-90.0 90.0)
           (-45.0 45.0)
  end
  begin
     id 22 
     name lfingers
     direction 1 -4.48987e-011 3.81946e-026   
     length 0.538517   
     axis -2.43714e-014 90 90   XYZ
    dof rx
    limits (0.0 90.0)
  end
  begin
     id 23
     name lthumb
     direction 0.707107 -6.34962e-011 0.707107   
     length 0.773206   
     axis -90 45 2.85299e-015   XYZ
    dof rx rz
    limits (-45.0 45.0)
           (-45.0 45.0)
  end
  begin
     id 24 
     name rclavicle
     direction -0.898763 0.414256 -0.143584   
     length 3.5176  
     axis 0 0 0   XYZ 
    dof ry rz
    limits (-10.0 20.0)
           (-20.0 0.0)
  end
  begin
     id 25 
     name rhumerus
     direction -1 -4.48971e-011 1.129e-027  
     length 5.25035   
     axis 180 30 90   XYZ
    dof rx ry rz
    limits (-90.0 60.0)
           (-90.0 90.0)
           (-90.0 90.0)
  end
  begin
     id 26 
     name rradius
     direction -1 -4.48955e-011 6.34664e-027   
     length 3.58884   
     axis 180 30 90   XYZ
    dof rx
    limits (-10.0 170.0)
  end
  begin
     id 27 
     name rwrist
     direction -1 -4.48966e-011 9.54866e-027   
     length 1.79442   
     axis -7.69462e-015 -90 -90   XYZ
    dof ry
    limits (-180.0 0.0)
  end
  begin
     id 28
     name rhand
     direction -1 -4.48973e-011 1.90973e-026   
     length 0.779235   
     axis -1.21857e-014 -90 -90   XYZ
    dof rx rz
    limits (-90.0 90.0)
           (-45.0 45.0)
  end
  begin
     id 29
     name rfingers
     direction -1 -4.48984e-011 3.81946e-026   
     length 0.62824   
     axis -2.43714e-014 -90 -90   XYZ
    dof rx
    limits (0.0 90.0)
  end
  begin
     id 30
     name rthumb
     direction -0.707107 -6.34968e-011 0.707107   
     length 0.90203   
     axis -90 -45 -2.85299e-015   XYZ
    dof rx rz
    limits (-45.0 45.0)
           (-45.0 45.0)
  end
:hierarchy
  begin
    root lhipjoint rhipjoint lowerback
    lhipjoint lfemur
    lfemur ltibia
    ltibia lfoot
    lfoot ltoes
    rhipjoint rfemur
    rfemur rtibia
    rtibia rfoot
    rfoot rtoes
    lowerback upperback
    upperback thorax
    thorax lowerneck lclavicle rclavicle
    lowerneck upperneck
    upperneck head
    lclavicle lhumerus
    lhumerus lradius
    lradius lwrist
    lwrist lhand lthumb
    lhand lfingers
    rclavicle rhumerus
    rhumerus rradius
    rradius rwrist
    rwrist rhand rthumb
    rhand rfingers
  end

#!OML:ASF I:\Random Stuff\random\construction\7_22_03\Session 2\subj1.ASF
:FULLY-SPECIFIED
:DEGREES
177
root -7.36505 17.9096 2.70671 9.7627 39.5958 3.92296
lowerback 3.11445 -3.76653 2.57414
upperback -1.64725 -4.82104 2.34419
thorax -3.4509 -2.42581 1.27046
lowerneck -24.4988 2.46394 1.35152
upperneck 38.7228 4.85588 -2.87696
head 19.0624 1.78666 -0.463053
rclavicle -3.67752e-015 -2.54444e-014
rhumerus -37.1232 27.3516 -85.6593
rradius 99.2417
rwrist 28.3551
rhand -48.8791 63.4653
rfingers 7.12502
rthumb -21.513 34.64
lclavicle -3.67752e-015 -2.54444e-014
lhumerus 9.34582 -50.8305 83.588
lradius 75.325
lwrist 84.1284
lhand -13.2358 75.3865
lfingers 7.12502
lthumb -167.134 -284.97
rfemur -12.1823 15.1853 17.8238
rtibia 14.1373
rfoot -9.54267 -2.72888
rtoes -11.209
lfemur -7.86445 1.61076 -11.4394
ltibia 21.0338
lfoot -1.04581 12.423
ltoes -37.4299
178
root -7.38588 17.9081 2.72511 9.66178 39.4437 4.02436
lowerback 3.06532 -3.89565 2.59553
upperback -1.63266 -4.99206 2.41586
thorax -3.40373 -2.51027 1.33837
lowerneck -24.532 2.57709 1.45465
upperneck 38.771 5.09867 -3.13181
head 19.1273 1.8562 -0.547936
rclavicle 6.25178e-014 -4.77083e-015
rhumerus -36.6977 28.6009 -86.0636
rradius 98.8163
rwrist 27.942
rhand -48.7014 65.3629
rfingers 7.12502
rthumb -21.3422 36.5182
lclavicle 6.25178e-014 -4.77083e-015
lhumerus 9.10869 -51.1091 83.6921
lradius 75.4738
lwrist 83.9021
lhand -14.4472 76.1291
lfingers 7.12502
lthumb -168.302 -285.783
rfemur -12.1257 15.1936 17.8815
rtibia 14.35
rfoot -9.68928 -2.5861
rtoes -10.7899
lfemur -7.62038 1.63448 -11.4354
ltibia 20.9817
lfoot -0.932331 12.4588
ltoes -36.6992
179
root -7.40318 17.9055 2.7438 9.62112 39.3064 4.20923
lowerback 2.9422 -4.00227 2.60374
upperback -1.5949 -5.13909 2.45099
thorax -3.29278 -2.58294 1.36714
lowerneck -24.4394 2.61622 1.48692
upperneck 38.6886 5.21847 -3.31963
head 19.0692 1.88067 -0.617226
rclavicle -2.47487e-014 1.27222e-014
rhumerus -36.2448 29.8658 -86.4465
rradius 98.1485
rwrist 27.5344
rhand -48.5994 66.7499
rfingers 7.12502
rthumb -21.2443 37.8941
lclavicle -2.47487e-014 1.27222e-014
lhumerus 9.01286 -51.4269 83.6361
lradius 75.5959
lwrist 82.9959
lhand -15.4136 76.2731
lfingers 7.12502
lthumb -169.234 -285.977
rfemur -12.0711 15.276 17.8507
rtibia 14.5773
rfoot -9.8197 -2.5572
rtoes -10.4137
lfemur -7.37325 1.61635 -11.5
ltibia 20.9091
lfoot -0.839805 12.512
ltoes -35.9332
180
root -7.42341 17.9016 2.76188 9.67419 39.1497 4.43109
lowerback 2.78001 -4.08197 2.56329
upperback -1.59198 -5.25311 2.48631
thorax -3.19136 -2.63846 1.4189
lowerneck -23.8693 2.71512 1.19009
upperneck 38.2811 5.43774 -3.22269
head 18.6661 1.9503 -0.472591
rclavicle -4.1049e-014 1.59028e-015
rhumerus -35.8242 30.9629 -86.7277
rradius 97.2366
rwrist 27.2552
rhand -48.6962 67.9469
rfingers 7.12502
rthumb -21.3373 39.1017
lclavicle -4.1049e-014 1.59028e-015
lhumerus 8.83376 -51.2652 83.7202
lradius 75.734
lwrist 81.9634
lhand -16.0771 76.1784
lfingers 7.12502
lthumb -169.874 -285.915
rfemur -12.1046 15.3087 17.7697
rtibia 14.7952
rfoot -9.95733 -2.44102
rtoes -10.1727
lfemur -7.20826 1.72405 -11.5719
ltibia 20.8232
lfoot -0.689388 12.4401
ltoes -35.32
181
root -7.44452 17.8985 2.77829 9.71624 39.0107 4.65654
lowerback 2.69167 -4.14377 2.51182
upperback -1.60708 -5.3399 2.52039
thorax -3.14905 -2.68033 1.48043
lowerneck -23.9274 2.73433 1.30401
upperneck 38.4326 5.47166 -3.33032
head 18.783 1.96149 -0.536318
rclavicle -1.26228e-014 -1.59028e-015
rhumerus -35.478 31.7489 -86.8768
rradius 96.3174
rwrist 27.0052
rhand -49.0218 69.4633
rfingers 7.12502
rthumb -21.65 40.6538
lclavicle -1.26228e-014 -1.59028e-015
lhumerus 8.30778 -50.405 84.2667
lradius 75.9201
lwrist 81.2354
lhand -16.8343 76.2816
lfingers 7.12502
lthumb -170.605 -286.052
rfemur -12.1071 15.2575 17.6914
rtibia 14.9764
rfoot -10.1029 -2.23848
rtoes -9.83372
lfemur -7.0465 1.82065 -11.6294
ltibia 20.7584
lfoot -0.490137 12.2005
ltoes -34.9977
182
root -7.46491 17.8959 2.79329 9.63115 38.9635 4.80137
lowerback 2.69768 -4.20987 2.55515
upperback -1.57743 -5.42512 2.56485
thorax -3.12129 -2.72281 1.50582
lowerneck -23.9274 2.67891 1.25985
upperneck 38.5472 5.40899 -3.32228
head 18.8467 1.93003 -0.539963
rclavicle 1.4233e-013 -1.59028e-015
rhumerus -35.2148 32.3864 -86.9984
rradius 95.4756
rwrist 26.9341
rhand -49.2607 70.6256
rfingers 7.12502
rthumb -21.8794 41.8427
lclavicle 1.4233e-013 -1.59028e-015
lhumerus 7.78509 -49.2303 84.8279
lradius 76.2785
lwrist 81.427
lhand -17.6802 76.7081
lfingers 7.12502
lthumb -171.421 -286.514
rfemur -11.9603 15.276 17.7056
rtibia 15.0841
rfoot -10.2112 -2.19227
rtoes -9.22211
lfemur -6.85268 1.85707 -11.6122
ltibia 20.7459
lfoot -0.161487 11.8255
ltoes -35.849
183
root -7.48625 17.8946 2.80842 9.48476 39.0099 4.86912
lowerback 2.70322 -4.29899 2.67775
upperback -1.52196 -5.53755 2.6325
thorax -3.07184 -2.77983 1.51158
lowerneck -23.9584 2.63966 1.14813
upperneck 38.6646 5.36582 -3.2291
head 18.9141 1.90805 -0.486116
rclavicle 1.96797e-014 -2.06736e-014
rhumerus -35.018 33.1159 -87.1222
rradius 94.807
rwrist 27.0212
rhand -48.8903 71.2165
rfingers 7.12502
rthumb -21.5236 42.3924
lclavicle 1.96797e-014 -2.06736e-014
lhumerus 7.38002 -48.1527 85.1552
lradius 76.8746
lwrist 82.3082
lhand -18.4265 77.3073
lfingers 7.12502
lthumb -172.141 -287.141
rfemur -11.7515 15.289 17.809
rtibia 15.1387
rfoot -10.2886 -2.24322
rtoes -9.00022
lfemur -6.69638 1.88737 -11.5125
ltibia 20.7748
lfoot 0.15769 11.462
ltoes -36.3424
184
root -7.50697 17.8952 2.82336 9.40794 39.1262 5.00729
lowerback 2.68204 -4.41088 2.76176
upperback -1.45743 -5.68418 2.68606
thorax -2.99571 -2.85323 1.52305
lowerneck -24.0579 2.59155 1.1527
upperneck 38.8109 5.32612 -3.2929
head 19.0314 1.87986 -0.526587
rclavicle 3.26007e-014 -1.59028e-014
rhumerus -34.7745 33.9656 -87.1887
rradius 94.419
rwrist 26.6539
rhand -47.9067 72.1454
rfingers 7.12502
rthumb -20.5787 43.2162
lclavicle 3.26007e-014 -1.59028e-014
lhumerus 6.96019 -47.2692 85.413
lradius 77.6345
lwrist 82.634
lhand -19.3055 77.9639
lfingers 7.12502
lthumb -172.99 -287.828
rfemur -11.5403 15.1706 17.8575
rtibia 15.1549
rfoot -10.3488 -2.24547
rtoes -9.09542
lfemur -6.61492 1.91095 -11.4524
ltibia 20.8469
lfoot 0.359445 11.1255
ltoes -35.5468
185
root -7.5276 17.896 2.83678 9.41143 39.2861 5.21072
lowerback 2.6757 -4.53069 2.83332
upperback -1.37439 -5.84268 2.71758
thorax -2.90992 -2.93241 1.51953
lowerneck -24.2973 2.55245 1.15541
upperneck 38.9723 5.32086 -3.39676
head 19.2005 1.85569 -0.577129
rclavicle -9.74045e-015 1.11319e-014
rhumerus -34.8184 35.2853 -87.5814
rradius 93.8163
rwrist 28.1573
rhand -50.3325 67.851
rfingers 7.12502
rthumb -22.9082 39.1918
lclavicle -9.74045e-015 1.11319e-014
lhumerus 6.64457 -46.4519 85.6039
lradius 78.3948
lwrist 82.1104
lhand -20.3149 78.6126
lfingers 7.12502
lthumb -173.964 -288.507
rfemur -11.3619 15.0112 17.8323
rtibia 15.1336
rfoot -10.3854 -2.25183
rtoes -9.06458
lfemur -6.62779 1.9117 -11.4445
ltibia 20.9687
lfoot 0.560259 10.7827
ltoes -35.1805
